HIERARCHY
ROOT Hips
{
    OFFSET   0.000000   0.000000   0.000000
    CHANNELS 6 Xposition Yposition Zposition Zrotation Xrotation Yrotation
    JOINT Chest
    {
        OFFSET   0.000000   8.007230   0.000000
        CHANNELS 3 Zrotation Xrotation Yrotation
        JOINT Chest2
        {
            OFFSET   0.000000  22.077100   0.000000
            CHANNELS 3 Zrotation Xrotation Yrotation
            JOINT Neck
            {
                OFFSET   0.000000  23.254800   0.000000
                CHANNELS 3 Zrotation Xrotation Yrotation
                JOINT Head
                {
                    OFFSET   0.000010  14.370000   1.956600
                    CHANNELS 3 Zrotation Xrotation Yrotation
                    End Site
                    {
                        OFFSET   0.000000  19.566000   0.000000
                    }
                }
            }
            JOINT LeftCollar
            {
                OFFSET   3.911900  19.017000  -0.467062
                CHANNELS 3 Zrotation Xrotation Yrotation
                JOINT LeftShoulder
                {
                    OFFSET  10.383700   0.000000   0.000000
                    CHANNELS 3 Zrotation Xrotation Yrotation
                    JOINT LeftElbow
                    {
                        OFFSET  26.662100   0.001193   0.000835
                        CHANNELS 3 Zrotation Xrotation Yrotation
                        JOINT LeftWrist
                        {
                            OFFSET  28.869000  -0.000058  -0.000075
                            CHANNELS 3 Zrotation Xrotation Yrotation
                            JOINT LeftFinger0
                            {
                                OFFSET   2.044660  -2.323460   3.252850
                                CHANNELS 3 Zrotation Xrotation Yrotation
                                JOINT LeftFinger01
                                {
                                    OFFSET   3.088130   0.000000   0.000000
                                    CHANNELS 3 Zrotation Xrotation Yrotation
                                    JOINT LeftFinger02
                                    {
                                        OFFSET   2.639450   0.000000   0.000000
                                        CHANNELS 3 Zrotation Xrotation Yrotation
                                        End Site
                                        {
                                            OFFSET   2.582190   0.000000   0.000000
                                        }
                                    }
                                }
                            }
                            JOINT LeftFinger1
                            {
                                OFFSET   8.364480   0.000000   3.252850
                                CHANNELS 3 Zrotation Xrotation Yrotation
                                JOINT LeftFinger11
                                {
                                    OFFSET   4.646920   0.000000   0.000000
                                    CHANNELS 3 Zrotation Xrotation Yrotation
                                    JOINT LeftFinger12
                                    {
                                        OFFSET   2.323460   0.000000   0.000000
                                        CHANNELS 3 Zrotation Xrotation Yrotation
                                        End Site
                                        {
                                            OFFSET   2.273050   0.000000   0.000000
                                        }
                                    }
                                }
                            }
                            JOINT LeftFinger2
                            {
                                OFFSET   8.364490   0.000016   1.078090
                                CHANNELS 3 Zrotation Xrotation Yrotation
                                JOINT LeftFinger21
                                {
                                    OFFSET   5.111620   0.000000   0.000000
                                    CHANNELS 3 Zrotation Xrotation Yrotation
                                    JOINT LeftFinger22
                                    {
                                        OFFSET   2.788150   0.000012   0.000000
                                        CHANNELS 3 Zrotation Xrotation Yrotation
                                        End Site
                                        {
                                            OFFSET   2.727660   0.000000   0.000000
                                        }
                                    }
                                }
                            }
                            JOINT LeftFinger3
                            {
                                OFFSET   7.899780   0.000014  -1.078090
                                CHANNELS 3 Zrotation Xrotation Yrotation
                                JOINT LeftFinger31
                                {
                                    OFFSET   4.646930   0.000000   0.000000
                                    CHANNELS 3 Zrotation Xrotation Yrotation
                                    JOINT LeftFinger32
                                    {
                                        OFFSET   2.323470   0.000000   0.000000
                                        CHANNELS 3 Zrotation Xrotation Yrotation
                                        End Site
                                        {
                                            OFFSET   2.273050   0.000000   0.000000
                                        }
                                    }
                                }
                            }
                            JOINT LeftFinger4
                            {
                                OFFSET   7.435090   0.000000  -3.252850
                                CHANNELS 3 Zrotation Xrotation Yrotation
                                JOINT LeftFinger41
                                {
                                    OFFSET   3.717550   0.000000   0.000000
                                    CHANNELS 3 Zrotation Xrotation Yrotation
                                    JOINT LeftFinger42
                                    {
                                        OFFSET   1.858770   0.000000   0.000000
                                        CHANNELS 3 Zrotation Xrotation Yrotation
                                        End Site
                                        {
                                            OFFSET   1.818440   0.000000   0.000000
                                        }
                                    }
                                }
                            }
                        }
                    }
                }
            }
            JOINT RightCollar
            {
                OFFSET  -3.911900  19.017000  -0.467063
                CHANNELS 3 Zrotation Xrotation Yrotation
                JOINT RightShoulder
                {
                    OFFSET -10.383700   0.000023   0.000000
                    CHANNELS 3 Zrotation Xrotation Yrotation
                    JOINT RightElbow
                    {
                        OFFSET -26.662100   0.001246   0.001011
                        CHANNELS 3 Zrotation Xrotation Yrotation
                        JOINT RightWrist
                        {
                            OFFSET -28.869000  -0.000026  -0.000078
                            CHANNELS 3 Zrotation Xrotation Yrotation
                            JOINT RightFinger0
                            {
                                OFFSET  -2.044660  -2.323490   3.252850
                                CHANNELS 3 Zrotation Xrotation Yrotation
                                JOINT RightFinger01
                                {
                                    OFFSET  -3.088130   0.000000   0.000000
                                    CHANNELS 3 Zrotation Xrotation Yrotation
                                    JOINT RightFinger02
                                    {
                                        OFFSET  -2.639460   0.000000   0.000000
                                        CHANNELS 3 Zrotation Xrotation Yrotation
                                        End Site
                                        {
                                            OFFSET  -2.582190   0.000000   0.000000
                                        }
                                    }
                                }
                            }
                            JOINT RightFinger1
                            {
                                OFFSET  -8.364480   0.000000   3.252850
                                CHANNELS 3 Zrotation Xrotation Yrotation
                                JOINT RightFinger11
                                {
                                    OFFSET  -4.646920   0.000000   0.000000
                                    CHANNELS 3 Zrotation Xrotation Yrotation
                                    JOINT RightFinger12
                                    {
                                        OFFSET  -2.323470   0.000000   0.000000
                                        CHANNELS 3 Zrotation Xrotation Yrotation
                                        End Site
                                        {
                                            OFFSET  -2.273050   0.000000   0.000000
                                        }
                                    }
                                }
                            }
                            JOINT RightFinger2
                            {
                                OFFSET  -8.364480   0.000000   1.078090
                                CHANNELS 3 Zrotation Xrotation Yrotation
                                JOINT RightFinger21
                                {
                                    OFFSET  -5.111620   0.000000   0.000000
                                    CHANNELS 3 Zrotation Xrotation Yrotation
                                    JOINT RightFinger22
                                    {
                                        OFFSET  -2.788160   0.000000   0.000000
                                        CHANNELS 3 Zrotation Xrotation Yrotation
                                        End Site
                                        {
                                            OFFSET  -2.727660   0.000000   0.000000
                                        }
                                    }
                                }
                            }
                            JOINT RightFinger3
                            {
                                OFFSET  -7.899780   0.000000  -1.078090
                                CHANNELS 3 Zrotation Xrotation Yrotation
                                JOINT RightFinger31
                                {
                                    OFFSET  -4.646930   0.000000   0.000000
                                    CHANNELS 3 Zrotation Xrotation Yrotation
                                    JOINT RightFinger32
                                    {
                                        OFFSET  -2.323470   0.000000   0.000000
                                        CHANNELS 3 Zrotation Xrotation Yrotation
                                        End Site
                                        {
                                            OFFSET  -2.273050   0.000000   0.000000
                                        }
                                    }
                                }
                            }
                            JOINT RightFinger4
                            {
                                OFFSET  -7.435090   0.000000  -3.252850
                                CHANNELS 3 Zrotation Xrotation Yrotation
                                JOINT RightFinger41
                                {
                                    OFFSET  -3.717550   0.000000   0.000000
                                    CHANNELS 3 Zrotation Xrotation Yrotation
                                    JOINT RightFinger42
                                    {
                                        OFFSET  -1.858760   0.000000   0.000000
                                        CHANNELS 3 Zrotation Xrotation Yrotation
                                        End Site
                                        {
                                            OFFSET  -1.818440   0.000000   0.000000
                                        }
                                    }
                                }
                            }
                        }
                    }
                }
            }
        }
    }
    JOINT LeftHip
    {
        OFFSET   9.783010   0.000000   0.000000
        CHANNELS 3 Zrotation Xrotation Yrotation
        JOINT LeftKnee
        {
            OFFSET   0.000073 -41.789100   0.001749
            CHANNELS 3 Zrotation Xrotation Yrotation
            JOINT LeftAnkle
            {
                OFFSET   0.000111 -41.133200  -0.000179
                CHANNELS 3 Zrotation Xrotation Yrotation
                JOINT LeftToe
                {
                    OFFSET   0.000000  -6.358960  14.674500
                    CHANNELS 3 Zrotation Xrotation Yrotation
                    End Site
                    {
                        OFFSET   0.000000   0.000000   3.913200
                    }
                }
            }
        }
    }
    JOINT RightHip
    {
        OFFSET  -9.783010   0.000000   0.000000
        CHANNELS 3 Zrotation Xrotation Yrotation
        JOINT RightKnee
        {
            OFFSET   0.000424 -41.789200   0.005205
            CHANNELS 3 Zrotation Xrotation Yrotation
            JOINT RightAnkle
            {
                OFFSET   0.000000 -41.133200  -0.000155
                CHANNELS 3 Zrotation Xrotation Yrotation
                JOINT RightToe
                {
                    OFFSET   0.000000  -6.358960  14.674500
                    CHANNELS 3 Zrotation Xrotation Yrotation
                    End Site
                    {
                        OFFSET   0.000000   0.000000   3.913200
                    }
                }
            }
        }
    }
}
MOTION
Frames: 5
Frame Time:   0.016667
 -2.665290  89.307200   0.390050  -9.701290  -9.337430 -31.529700   3.179090  11.016900  -6.287150   7.807600  21.585300 -13.573000   5.435150   1.043360  -0.099272   8.936700   2.059420  15.506500  -0.836125   0.424277   2.177380 -67.058200  27.064800  -9.355400  -8.644170 -10.311300 -20.836400  14.962900 -16.901000   3.472780  49.615800  39.029100 -77.057900 -20.921700   0.002475   0.003688  -5.460850  -0.002592  -0.001499 -29.546300   4.456920  -7.806000 -24.423400  -0.003031   0.002926 -17.096400  -0.003547   0.003764 -28.334000  -0.635177   1.177800 -34.567800  -0.005911   0.002675 -23.022200  -0.001617  -0.002322 -28.108300  -0.630537   1.180320 -32.781400  -0.004153   0.001881 -21.832400  -0.002469   0.001649 -29.905000  -0.667320   1.160220 -44.868000  -0.000333   0.003823 -29.882100  -0.004742   0.000899   7.351830  -1.951260   4.866350  48.738100  23.214200  -0.084606   1.165220   6.498850  13.634100 -14.363900  14.703900  -6.475120 -39.954900  29.886900  70.621200   0.384083   0.029015  -0.026209  -4.807960   0.015389  -0.018412  18.403500   4.468110  13.446200  15.450500  -0.085622  -0.021835  10.815300  -0.061714  -0.002033  13.875000   0.943533   4.137140  13.852700  -0.139051  -0.051479   9.225960  -0.097244  -0.015078   7.478730  -0.369452  -1.849940   7.262580  -0.190122  -0.082036   4.836940  -0.131903  -0.037406  12.631900  -3.069790 -13.080600  19.240800  -0.320842   0.002505  12.814500  -0.202443   0.061511   1.774790  19.302600   7.170150   0.775362   0.892439  22.069400  -1.741700  -7.283290  11.257800  -0.000000   0.000000   0.000000   5.559820  12.046700  -6.080140  -1.166940   3.190750   5.432450  -0.529359  -2.995640  16.161200   0.000000   0.000000   0.000000
 -2.681940  89.300700   0.341518  -9.649380  -9.432020 -31.144200   3.143880  10.988800  -6.164660   7.707670  21.543300 -13.311000   5.301640   0.888308  -0.082524   8.714530   1.755700  15.746500  -0.918798   0.312384   2.260180 -67.165500  27.172000  -9.362080  -8.531420 -10.393000 -20.840600  15.043000 -16.898600   3.514980  49.509200  39.000700 -77.069000 -20.952300   0.002470   0.003691  -5.476130  -0.002588  -0.001504 -29.581800   4.454790  -7.794910 -24.452700  -0.003027   0.002925 -17.116800  -0.003548   0.003756 -28.340500  -0.639161   1.184830 -34.627300  -0.005906   0.002669 -23.061700  -0.001618  -0.002331 -28.118500  -0.634556   1.187340 -32.855600  -0.004158   0.001882 -21.881800  -0.002470   0.001656 -29.959400  -0.672350   1.166830 -44.950000  -0.000337   0.003833 -29.936700  -0.004742   0.000881   7.445260  -2.031570   4.967760  49.302900  22.030800   0.538037   0.411632   5.539380  14.737900 -14.177100  11.707200  -6.377430 -40.432400  30.193200  70.670700   2.020190   0.026778  -0.032262  -3.989910   0.014117  -0.018272  20.429800   5.205730  13.978800  17.189100  -0.098221  -0.009541  12.032300  -0.068053   0.010900  16.918200   1.501900   5.248180  16.928300  -0.138477  -0.030547  11.274300  -0.096238   0.003060  10.973100  -0.009762   0.959524  10.785800  -0.194316  -0.056421   7.183320  -0.131870  -0.015284  16.028900  -2.714290  -8.876810  24.106500  -0.316174   0.047493  16.055000  -0.191979   0.095641   1.826480  19.270500   7.194880   0.791720   0.912486  21.920400  -1.751030  -7.252240  10.982300  -0.000000   0.000000   0.000000   5.603310  12.080400  -6.098770  -1.200430   3.213370   5.343000  -0.568065  -2.994270  15.900200  -0.000000   0.000000   0.000000
 -2.700200  89.294100   0.302459  -9.583470  -9.544060 -30.679300   3.112000  10.954000  -6.028360   7.609240  21.488600 -13.020500   5.157480   0.729294  -0.065979   8.476060   1.443660  15.831500  -1.009290   0.191759   2.333640 -67.272100  27.287000  -9.368600  -8.419540 -10.409900 -20.831200  15.087700 -16.886400   3.535270  49.453800  38.968600 -77.068700 -20.991400   0.002466   0.003696  -5.495660  -0.002583  -0.001509 -29.596800   4.447590  -7.774160 -24.463500  -0.003025   0.002924 -17.124400  -0.003548   0.003747 -28.341900  -0.648493   1.202050 -34.644500  -0.005901   0.002660 -23.073200  -0.001618  -0.002340 -28.121600  -0.643870   1.204550 -32.881800  -0.004162   0.001883 -21.899200  -0.002471   0.001663 -29.983300  -0.682685   1.183000 -44.986600  -0.000340   0.003842 -29.961100  -0.004742   0.000866   7.544720  -2.105380   5.097820  49.936000  20.942100   1.116440  -0.340078   4.545920  15.970800 -13.869600   8.933590  -6.193850 -40.896400  30.454300  70.623400   3.907160   0.023106  -0.036493  -3.046440   0.012076  -0.017846  22.325300   6.034890  14.632000  18.847300  -0.104405  -0.000185  13.193100  -0.070891   0.017550  19.603000   2.115900   6.256100  19.667200  -0.134457  -0.014104  13.098300  -0.089189   0.012453  14.104800   0.707534   3.545930  14.012900  -0.194915  -0.032736   9.332550  -0.131638   0.002128  19.170900  -1.906860  -4.987590  28.640600  -0.283496   0.069789  19.074700  -0.160852   0.109389   1.882770  19.249400   7.208290   0.809356   0.916327  21.746800  -1.765730  -7.205370  10.659600  -0.000000   0.000000   0.000000   5.639830  12.132700  -6.111240  -1.224280   3.224090   5.161630  -0.595937  -2.997020  15.616200   0.000000   0.000000   0.000000
 -2.721160  89.287000   0.271836  -9.504560  -9.680510 -30.124000   3.082230  10.915900  -5.876310   7.511260  21.428000 -12.697700   5.007510   0.561794  -0.049396   8.228930   1.113820  15.821600  -1.108430   0.060051   2.392850 -67.376200  27.408700  -9.371530  -8.309530 -10.379100 -20.803100  15.112100 -16.823400   3.542810  49.367600  38.914100 -76.958700 -21.057300   0.002467   0.003704  -5.528630  -0.002581  -0.001502 -29.573500   4.400420  -7.698670 -24.438400  -0.003027   0.002930 -17.106900  -0.003547   0.003750 -28.336600  -0.678950   1.258780 -34.603100  -0.005902   0.002655 -23.045600  -0.001620  -0.002333 -28.117500  -0.674146   1.261350 -32.856500  -0.004158   0.001880 -21.882400  -0.002472   0.001656 -29.978600  -0.714788   1.238330 -44.980500  -0.000335   0.003838 -29.957000  -0.004742   0.000861   7.638180  -2.169610   5.308220  50.692300  19.942400   1.645290  -1.105790   3.447420  17.364700 -13.508900   6.414240  -5.796770 -41.351300  30.585800  70.501600   6.419880   0.012400  -0.028070  -1.790080   0.006182  -0.013495  24.070400   7.039740  15.498800  20.436900  -0.082394   0.006104  14.305800  -0.055054   0.017417  21.611900   2.745910   7.128850  21.783100  -0.089652  -0.001876  14.507600  -0.057104   0.013154  16.582700   1.584050   5.758480  16.585800  -0.143958  -0.012663  11.046100  -0.096974   0.010104  21.504200  -0.823660  -1.749120  32.093000  -0.182405   0.057062  21.374000  -0.097415   0.082568   1.943070  19.243000   7.201010   0.830974   0.901906  21.537000  -1.785290  -7.143870  10.300500  -0.000000   0.000000   0.000000   5.664300  12.216800  -6.117980  -1.234570   3.216700   4.934630  -0.612725  -3.001710  15.296700   0.000000   0.000000   0.000000
 -2.742780  89.282500   0.250507  -9.410590  -9.834260 -29.493900   3.049900  10.872100  -5.712170   7.407620  21.356900 -12.349300   4.858580   0.391469  -0.033375   7.982780   0.777312  15.773300  -1.219600  -0.074928   2.442350 -67.470600  27.547400  -9.378270  -8.192420 -10.325600 -20.748300  15.132400 -16.733900   3.558030  49.242700  38.840000 -76.782000 -21.129100   0.002468   0.003709  -5.564520  -0.002581  -0.001496 -29.531900   4.360280  -7.643450 -24.401300  -0.003028   0.002937 -17.080900  -0.003546   0.003754 -28.326700  -0.713504   1.323350 -34.520200  -0.005905   0.002652 -22.990400  -0.001621  -0.002327 -28.109200  -0.708481   1.326070 -32.801200  -0.004153   0.001876 -21.845600  -0.002472   0.001650 -29.960500  -0.750858   1.302320 -44.954300  -0.000331   0.003833 -29.939600  -0.004743   0.000852   7.734970  -2.217960   5.564420  51.503000  19.068500   2.110390  -1.841850   2.284780  18.845000 -13.229700   3.997390  -5.144750 -41.629400  30.728800  70.369800   9.002550   0.000585  -0.014672  -0.498744   0.000269  -0.007371  25.663500   8.032680  16.314800  21.920900  -0.050794   0.009980  15.344600  -0.032322   0.016480  23.201000   3.352030   7.880970  23.438700  -0.048292   0.007522  15.610200  -0.029619   0.013855  18.623400   2.479000   7.529020  18.749300  -0.078191   0.003039  12.487000  -0.050383   0.014106  23.233600   0.278958   0.814604  34.769600  -0.078236   0.038559  23.156600  -0.037140   0.045128   2.001170  19.241400   7.181130   0.859386   0.869195  21.296300  -1.805970  -7.067340   9.911480  -0.000000   0.000000   0.000000   5.681660  12.317700  -6.131400  -1.237970   3.205450   4.697720  -0.632199  -3.007460  14.923000  -0.000000   0.000000  -0.000000
